<svg width="26" height="27" viewBox="0 0 26 27" fill="none" xmlns="http://www.w3.org/2000/svg">
<path fill-rule="evenodd" clip-rule="evenodd" d="M8.125 4.13672L8.9375 3.32422H12.1875L13 4.13672V22.0117L12.1875 22.8242H8.9375L8.125 22.0117V4.13672ZM9.75 4.94922V21.1992H11.375V4.94922H9.75Z" fill="#B9A0FF"/>
<path fill-rule="evenodd" clip-rule="evenodd" d="M14.9029 5.50959L15.3885 4.4682L18.4425 3.35664L19.4839 3.84225L25.5975 20.6393L25.1119 21.6806L22.0579 22.7922L21.0165 22.3066L14.9029 5.50959ZM16.7078 5.71731L22.2656 20.9873L23.7926 20.4315L18.2348 5.16153L16.7078 5.71731Z" fill="#B9A0FF"/>
<path fill-rule="evenodd" clip-rule="evenodd" d="M1.625 4.13672L2.4375 3.32422H5.6875L6.5 4.13672V22.0117L5.6875 22.8242H2.4375L1.625 22.0117V4.13672ZM3.25 4.94922V21.1992H4.875V4.94922H3.25Z" fill="#B9A0FF"/>
</svg>
