<svg width="26" height="25" viewBox="0 0 26 25" fill="none" xmlns="http://www.w3.org/2000/svg">
<mask id="path-1-outside-1_1249_68726" maskUnits="userSpaceOnUse" x="0" y="-0.015625" width="26" height="25" fill="black">
<rect fill="white" y="-0.015625" width="26" height="25"/>
<path d="M1.00094 22.8034C1.16078 22.4672 1.48141 22.5894 1.78 22.5473V21.8038C1.78 21.008 1.78 21.008 2.58859 21.008H3.33437C3.33437 20.6442 3.33437 20.3113 3.33437 19.978C3.33437 19.5445 3.42109 19.4569 3.85 19.4523C3.91984 19.4523 3.99062 19.4523 4.08016 19.4523V11.7683C3.95312 11.7683 3.82281 11.7743 3.69344 11.7683C3.45625 11.7538 3.33812 11.6362 3.33437 11.397C3.32781 11.0164 3.33437 10.6353 3.33437 10.2196C2.96594 10.2196 2.61766 10.2196 2.26937 10.2196C1.88172 10.2196 1.78094 10.1203 1.77953 9.73877C1.77953 9.29401 1.77625 8.84926 1.77953 8.40497C1.78234 8.08662 1.90516 7.9457 2.22062 7.97426C2.63547 8.01124 2.95844 7.86705 3.29406 7.63343C6.40563 5.46676 9.52297 3.30837 12.6461 1.15824C12.9803 0.927438 13.0211 0.926502 13.352 1.15497C16.5355 3.35628 19.7178 5.55853 22.8991 7.76171C23.1072 7.90637 23.3092 8.00281 23.5656 7.96957C23.6592 7.96112 23.7533 7.96112 23.8469 7.96957C24.0813 7.98175 24.2134 8.1016 24.2172 8.33427C24.2253 8.84145 24.2253 9.34847 24.2172 9.85534C24.213 10.1002 24.0827 10.2154 23.8263 10.2186C23.4513 10.2238 23.0763 10.2186 22.667 10.2186V11.1615C22.667 11.713 22.6202 11.7594 22.0717 11.7701C22.0248 11.7701 21.9803 11.7758 21.9166 11.78V19.4532C22.0281 19.4532 22.135 19.4499 22.2414 19.4532C22.5498 19.4644 22.6633 19.5777 22.6661 19.8844C22.6694 20.2486 22.6661 20.6128 22.6661 21.008H23.4353C24.2209 21.008 24.2209 21.008 24.2209 21.8038V22.5389C24.5022 22.6016 24.8411 22.4579 25 22.8029V24.5819C24.8838 24.765 24.7188 24.816 24.5036 24.816C16.8342 24.812 9.16516 24.812 1.49641 24.816C1.28312 24.816 1.11578 24.7664 1 24.5819L1.00094 22.8034ZM23.5056 8.66854H10.2128C9.83781 8.66854 9.66625 8.55244 9.67375 8.30759C9.68125 8.06274 9.84297 7.9663 10.21 7.9663H21.9541C21.8463 7.8853 21.7881 7.83849 21.7267 7.79588C18.8905 5.83427 16.0544 3.87173 13.2184 1.90824C13.0619 1.79963 12.9588 1.7898 12.7966 1.90356C9.97 3.86611 7.14047 5.8246 4.30797 7.77903C4.24141 7.82585 4.17859 7.87688 4.06094 7.9663H8.45031C8.52051 7.96197 8.59095 7.96401 8.66078 7.97238C8.85391 8.0089 8.97203 8.12875 8.96594 8.32678C8.95984 8.52482 8.84125 8.64092 8.64297 8.66433C8.56498 8.67003 8.48673 8.67128 8.40859 8.66808H2.50094V9.49813H23.5056V8.66854ZM10.7088 10.2327H7.91969C7.91969 10.6184 7.92531 10.9911 7.91969 11.3628C7.91453 11.6437 7.79594 11.758 7.5175 11.7687C7.3975 11.7734 7.27656 11.7687 7.15703 11.7687V19.4415C7.23672 19.4457 7.30516 19.4518 7.37406 19.4527C7.83859 19.4593 7.92156 19.5412 7.92203 20.0014C7.92203 20.3291 7.92203 20.6531 7.92203 20.9911H10.7106C10.7106 20.6166 10.7106 20.258 10.7106 19.8998C10.7106 19.5843 10.8316 19.464 11.1484 19.4541C11.2548 19.4504 11.3612 19.4541 11.4709 19.4541V11.7701C11.3655 11.7701 11.2806 11.7701 11.1958 11.7701C10.818 11.7659 10.7111 11.6587 10.7102 11.2814C10.7041 10.9387 10.7064 10.596 10.7064 10.2327H10.7088ZM15.2978 10.2327C15.2978 10.6138 15.2978 10.9719 15.2978 11.3305C15.2955 11.6456 15.1759 11.7631 14.8572 11.7701C14.7512 11.7725 14.6453 11.7701 14.5291 11.7701V19.4382C14.6083 19.4438 14.6763 19.4513 14.7447 19.4527C15.2186 19.4611 15.2978 19.5417 15.2978 20.0187C15.2978 20.3427 15.2978 20.6667 15.2978 20.993H18.0681C18.0752 20.9246 18.085 20.8713 18.085 20.8179C18.085 20.5136 18.085 20.2093 18.085 19.9054C18.0892 19.5698 18.2003 19.4616 18.5406 19.4537C18.6395 19.4513 18.7394 19.4537 18.8467 19.4537V11.7804C18.7727 11.7767 18.7117 11.7715 18.6503 11.7706C18.152 11.7636 18.0845 11.6957 18.0841 11.1976V10.2322L15.2978 10.2327ZM1.71578 24.0941H24.2795V23.2753H1.71578V24.0941ZM2.49625 22.5464H23.5009V21.7266H2.49625V22.5464ZM6.42109 19.4387V11.7889H4.82078V19.4387H6.42109ZM19.578 11.7865V19.4359H21.183V11.7865H19.578ZM12.2041 19.4363H13.7912V11.7865H12.2041V19.4363ZM21.9541 20.1765H18.8036V20.993H21.9541V20.1765ZM7.19969 20.1728H4.04781V20.9935H7.19875L7.19969 20.1728ZM11.4156 20.9878H14.5792V20.176H11.4156V20.9878ZM11.4156 11.0473H14.5778V10.2383H11.4161L11.4156 11.0473ZM18.8027 11.052H21.9433V10.2299H18.8027V11.052ZM4.05109 10.2289V11.0524H7.19687V10.2289H4.05109Z"/>
</mask>
<path d="M1.00094 22.8034C1.16078 22.4672 1.48141 22.5894 1.78 22.5473V21.8038C1.78 21.008 1.78 21.008 2.58859 21.008H3.33437C3.33437 20.6442 3.33437 20.3113 3.33437 19.978C3.33437 19.5445 3.42109 19.4569 3.85 19.4523C3.91984 19.4523 3.99062 19.4523 4.08016 19.4523V11.7683C3.95312 11.7683 3.82281 11.7743 3.69344 11.7683C3.45625 11.7538 3.33812 11.6362 3.33437 11.397C3.32781 11.0164 3.33437 10.6353 3.33437 10.2196C2.96594 10.2196 2.61766 10.2196 2.26937 10.2196C1.88172 10.2196 1.78094 10.1203 1.77953 9.73877C1.77953 9.29401 1.77625 8.84926 1.77953 8.40497C1.78234 8.08662 1.90516 7.9457 2.22062 7.97426C2.63547 8.01124 2.95844 7.86705 3.29406 7.63343C6.40563 5.46676 9.52297 3.30837 12.6461 1.15824C12.9803 0.927438 13.0211 0.926502 13.352 1.15497C16.5355 3.35628 19.7178 5.55853 22.8991 7.76171C23.1072 7.90637 23.3092 8.00281 23.5656 7.96957C23.6592 7.96112 23.7533 7.96112 23.8469 7.96957C24.0813 7.98175 24.2134 8.1016 24.2172 8.33427C24.2253 8.84145 24.2253 9.34847 24.2172 9.85534C24.213 10.1002 24.0827 10.2154 23.8263 10.2186C23.4513 10.2238 23.0763 10.2186 22.667 10.2186V11.1615C22.667 11.713 22.6202 11.7594 22.0717 11.7701C22.0248 11.7701 21.9803 11.7758 21.9166 11.78V19.4532C22.0281 19.4532 22.135 19.4499 22.2414 19.4532C22.5498 19.4644 22.6633 19.5777 22.6661 19.8844C22.6694 20.2486 22.6661 20.6128 22.6661 21.008H23.4353C24.2209 21.008 24.2209 21.008 24.2209 21.8038V22.5389C24.5022 22.6016 24.8411 22.4579 25 22.8029V24.5819C24.8838 24.765 24.7188 24.816 24.5036 24.816C16.8342 24.812 9.16516 24.812 1.49641 24.816C1.28312 24.816 1.11578 24.7664 1 24.5819L1.00094 22.8034ZM23.5056 8.66854H10.2128C9.83781 8.66854 9.66625 8.55244 9.67375 8.30759C9.68125 8.06274 9.84297 7.9663 10.21 7.9663H21.9541C21.8463 7.8853 21.7881 7.83849 21.7267 7.79588C18.8905 5.83427 16.0544 3.87173 13.2184 1.90824C13.0619 1.79963 12.9588 1.7898 12.7966 1.90356C9.97 3.86611 7.14047 5.8246 4.30797 7.77903C4.24141 7.82585 4.17859 7.87688 4.06094 7.9663H8.45031C8.52051 7.96197 8.59095 7.96401 8.66078 7.97238C8.85391 8.0089 8.97203 8.12875 8.96594 8.32678C8.95984 8.52482 8.84125 8.64092 8.64297 8.66433C8.56498 8.67003 8.48673 8.67128 8.40859 8.66808H2.50094V9.49813H23.5056V8.66854ZM10.7088 10.2327H7.91969C7.91969 10.6184 7.92531 10.9911 7.91969 11.3628C7.91453 11.6437 7.79594 11.758 7.5175 11.7687C7.3975 11.7734 7.27656 11.7687 7.15703 11.7687V19.4415C7.23672 19.4457 7.30516 19.4518 7.37406 19.4527C7.83859 19.4593 7.92156 19.5412 7.92203 20.0014C7.92203 20.3291 7.92203 20.6531 7.92203 20.9911H10.7106C10.7106 20.6166 10.7106 20.258 10.7106 19.8998C10.7106 19.5843 10.8316 19.464 11.1484 19.4541C11.2548 19.4504 11.3612 19.4541 11.4709 19.4541V11.7701C11.3655 11.7701 11.2806 11.7701 11.1958 11.7701C10.818 11.7659 10.7111 11.6587 10.7102 11.2814C10.7041 10.9387 10.7064 10.596 10.7064 10.2327H10.7088ZM15.2978 10.2327C15.2978 10.6138 15.2978 10.9719 15.2978 11.3305C15.2955 11.6456 15.1759 11.7631 14.8572 11.7701C14.7512 11.7725 14.6453 11.7701 14.5291 11.7701V19.4382C14.6083 19.4438 14.6763 19.4513 14.7447 19.4527C15.2186 19.4611 15.2978 19.5417 15.2978 20.0187C15.2978 20.3427 15.2978 20.6667 15.2978 20.993H18.0681C18.0752 20.9246 18.085 20.8713 18.085 20.8179C18.085 20.5136 18.085 20.2093 18.085 19.9054C18.0892 19.5698 18.2003 19.4616 18.5406 19.4537C18.6395 19.4513 18.7394 19.4537 18.8467 19.4537V11.7804C18.7727 11.7767 18.7117 11.7715 18.6503 11.7706C18.152 11.7636 18.0845 11.6957 18.0841 11.1976V10.2322L15.2978 10.2327ZM1.71578 24.0941H24.2795V23.2753H1.71578V24.0941ZM2.49625 22.5464H23.5009V21.7266H2.49625V22.5464ZM6.42109 19.4387V11.7889H4.82078V19.4387H6.42109ZM19.578 11.7865V19.4359H21.183V11.7865H19.578ZM12.2041 19.4363H13.7912V11.7865H12.2041V19.4363ZM21.9541 20.1765H18.8036V20.993H21.9541V20.1765ZM7.19969 20.1728H4.04781V20.9935H7.19875L7.19969 20.1728ZM11.4156 20.9878H14.5792V20.176H11.4156V20.9878ZM11.4156 11.0473H14.5778V10.2383H11.4161L11.4156 11.0473ZM18.8027 11.052H21.9433V10.2299H18.8027V11.052ZM4.05109 10.2289V11.0524H7.19687V10.2289H4.05109Z" fill="#0098BC"/>
<path d="M1.00094 22.8034C1.16078 22.4672 1.48141 22.5894 1.78 22.5473V21.8038C1.78 21.008 1.78 21.008 2.58859 21.008H3.33437C3.33437 20.6442 3.33437 20.3113 3.33437 19.978C3.33437 19.5445 3.42109 19.4569 3.85 19.4523C3.91984 19.4523 3.99062 19.4523 4.08016 19.4523V11.7683C3.95312 11.7683 3.82281 11.7743 3.69344 11.7683C3.45625 11.7538 3.33812 11.6362 3.33437 11.397C3.32781 11.0164 3.33437 10.6353 3.33437 10.2196C2.96594 10.2196 2.61766 10.2196 2.26937 10.2196C1.88172 10.2196 1.78094 10.1203 1.77953 9.73877C1.77953 9.29401 1.77625 8.84926 1.77953 8.40497C1.78234 8.08662 1.90516 7.9457 2.22062 7.97426C2.63547 8.01124 2.95844 7.86705 3.29406 7.63343C6.40563 5.46676 9.52297 3.30837 12.6461 1.15824C12.9803 0.927438 13.0211 0.926502 13.352 1.15497C16.5355 3.35628 19.7178 5.55853 22.8991 7.76171C23.1072 7.90637 23.3092 8.00281 23.5656 7.96957C23.6592 7.96112 23.7533 7.96112 23.8469 7.96957C24.0813 7.98175 24.2134 8.1016 24.2172 8.33427C24.2253 8.84145 24.2253 9.34847 24.2172 9.85534C24.213 10.1002 24.0827 10.2154 23.8263 10.2186C23.4513 10.2238 23.0763 10.2186 22.667 10.2186V11.1615C22.667 11.713 22.6202 11.7594 22.0717 11.7701C22.0248 11.7701 21.9803 11.7758 21.9166 11.78V19.4532C22.0281 19.4532 22.135 19.4499 22.2414 19.4532C22.5498 19.4644 22.6633 19.5777 22.6661 19.8844C22.6694 20.2486 22.6661 20.6128 22.6661 21.008H23.4353C24.2209 21.008 24.2209 21.008 24.2209 21.8038V22.5389C24.5022 22.6016 24.8411 22.4579 25 22.8029V24.5819C24.8838 24.765 24.7188 24.816 24.5036 24.816C16.8342 24.812 9.16516 24.812 1.49641 24.816C1.28312 24.816 1.11578 24.7664 1 24.5819L1.00094 22.8034ZM23.5056 8.66854H10.2128C9.83781 8.66854 9.66625 8.55244 9.67375 8.30759C9.68125 8.06274 9.84297 7.9663 10.21 7.9663H21.9541C21.8463 7.8853 21.7881 7.83849 21.7267 7.79588C18.8905 5.83427 16.0544 3.87173 13.2184 1.90824C13.0619 1.79963 12.9588 1.7898 12.7966 1.90356C9.97 3.86611 7.14047 5.8246 4.30797 7.77903C4.24141 7.82585 4.17859 7.87688 4.06094 7.9663H8.45031C8.52051 7.96197 8.59095 7.96401 8.66078 7.97238C8.85391 8.0089 8.97203 8.12875 8.96594 8.32678C8.95984 8.52482 8.84125 8.64092 8.64297 8.66433C8.56498 8.67003 8.48673 8.67128 8.40859 8.66808H2.50094V9.49813H23.5056V8.66854ZM10.7088 10.2327H7.91969C7.91969 10.6184 7.92531 10.9911 7.91969 11.3628C7.91453 11.6437 7.79594 11.758 7.5175 11.7687C7.3975 11.7734 7.27656 11.7687 7.15703 11.7687V19.4415C7.23672 19.4457 7.30516 19.4518 7.37406 19.4527C7.83859 19.4593 7.92156 19.5412 7.92203 20.0014C7.92203 20.3291 7.92203 20.6531 7.92203 20.9911H10.7106C10.7106 20.6166 10.7106 20.258 10.7106 19.8998C10.7106 19.5843 10.8316 19.464 11.1484 19.4541C11.2548 19.4504 11.3612 19.4541 11.4709 19.4541V11.7701C11.3655 11.7701 11.2806 11.7701 11.1958 11.7701C10.818 11.7659 10.7111 11.6587 10.7102 11.2814C10.7041 10.9387 10.7064 10.596 10.7064 10.2327H10.7088ZM15.2978 10.2327C15.2978 10.6138 15.2978 10.9719 15.2978 11.3305C15.2955 11.6456 15.1759 11.7631 14.8572 11.7701C14.7512 11.7725 14.6453 11.7701 14.5291 11.7701V19.4382C14.6083 19.4438 14.6763 19.4513 14.7447 19.4527C15.2186 19.4611 15.2978 19.5417 15.2978 20.0187C15.2978 20.3427 15.2978 20.6667 15.2978 20.993H18.0681C18.0752 20.9246 18.085 20.8713 18.085 20.8179C18.085 20.5136 18.085 20.2093 18.085 19.9054C18.0892 19.5698 18.2003 19.4616 18.5406 19.4537C18.6395 19.4513 18.7394 19.4537 18.8467 19.4537V11.7804C18.7727 11.7767 18.7117 11.7715 18.6503 11.7706C18.152 11.7636 18.0845 11.6957 18.0841 11.1976V10.2322L15.2978 10.2327ZM1.71578 24.0941H24.2795V23.2753H1.71578V24.0941ZM2.49625 22.5464H23.5009V21.7266H2.49625V22.5464ZM6.42109 19.4387V11.7889H4.82078V19.4387H6.42109ZM19.578 11.7865V19.4359H21.183V11.7865H19.578ZM12.2041 19.4363H13.7912V11.7865H12.2041V19.4363ZM21.9541 20.1765H18.8036V20.993H21.9541V20.1765ZM7.19969 20.1728H4.04781V20.9935H7.19875L7.19969 20.1728ZM11.4156 20.9878H14.5792V20.176H11.4156V20.9878ZM11.4156 11.0473H14.5778V10.2383H11.4161L11.4156 11.0473ZM18.8027 11.052H21.9433V10.2299H18.8027V11.052ZM4.05109 10.2289V11.0524H7.19687V10.2289H4.05109Z" stroke="#0098BC" stroke-width="0.2" mask="url(#path-1-outside-1_1249_68726)"/>
<path d="M14.125 5.99235C14.1255 6.21436 14.0601 6.43152 13.937 6.61644C13.814 6.80135 13.6389 6.94573 13.4339 7.03135C13.2288 7.11697 13.0029 7.13998 12.7847 7.0975C12.5665 7.05501 12.3658 6.94893 12.208 6.79263C12.0501 6.63634 11.9422 6.43684 11.8977 6.21931C11.8533 6.00179 11.8743 5.77599 11.9583 5.57042C12.0422 5.36485 12.1852 5.18872 12.3693 5.06425C12.5534 4.93979 12.7702 4.87258 12.9925 4.8711C13.2914 4.87035 13.5784 4.98793 13.7906 5.19808C14.0029 5.40824 14.1231 5.69385 14.125 5.99235ZM13.4219 5.98627C13.4199 5.87452 13.3736 5.76811 13.2932 5.69045C13.2127 5.6128 13.1046 5.57025 12.9927 5.57217C12.8808 5.5741 12.7743 5.62034 12.6965 5.70072C12.6188 5.78109 12.5762 5.88903 12.5781 6.00078C12.5801 6.11253 12.6263 6.21893 12.7068 6.29659C12.7873 6.37425 12.8954 6.4168 13.0073 6.41487C13.1192 6.41295 13.2257 6.36671 13.3034 6.28633C13.3812 6.20595 13.4238 6.09802 13.4219 5.98627Z" fill="#0098BC"/>
</svg>
