<svg width="27" height="28" viewBox="0 0 27 28" fill="none" xmlns="http://www.w3.org/2000/svg">
<path d="M11.6145 15.5543C11.6262 15.5671 11.6379 15.5797 11.6497 15.5923C11.6732 15.6175 11.6967 15.6427 11.7194 15.6695C14.7648 19.2544 17.8143 22.8339 20.8679 26.4081C21.1124 26.6931 21.3787 26.9578 21.6642 27.1998C22.0527 27.5301 22.5349 27.6568 23.0128 27.7824C23.0274 27.7863 23.0421 27.7901 23.0567 27.794L11.6145 15.5543ZM11.6145 15.5543C10.7007 16.2702 9.72368 15.9998 9.17052 15.1803C9.18045 15.1691 9.19041 15.1578 9.20042 15.1463L9.08745 15.0476L8.95768 15.1229C8.96594 15.1371 8.97432 15.1512 8.98282 15.1652C8.95962 15.191 8.93644 15.2165 8.91336 15.2419C8.79669 15.3705 8.68247 15.4964 8.57959 15.6302C8.53401 15.7113 8.51821 15.8063 8.53501 15.8983C8.66176 16.8704 8.24306 17.7274 7.42401 18.1509C7.03149 18.355 6.58534 18.4254 6.1509 18.3516C5.71645 18.2778 5.31653 18.0637 5.0097 17.7408C3.54352 16.2521 2.082 14.7575 0.625142 13.257C0.306899 12.9388 0.0984804 12.5235 0.0313129 12.0736C-0.0358545 11.6238 0.0418709 11.1638 0.252769 10.7631C0.678463 9.93926 1.53947 9.5193 2.48001 9.66316C2.52737 9.66726 2.57505 9.66146 2.62014 9.64609C2.66522 9.63073 2.70677 9.60613 2.74225 9.5738C4.75271 7.52879 6.75881 5.47871 8.76053 3.42357C8.79221 3.39217 8.8173 3.35451 8.83428 3.31288C8.85126 3.27125 8.85978 3.22652 8.85931 3.18142C8.80263 2.90349 8.80114 2.61676 8.85491 2.33823C8.90868 2.0597 9.01661 1.79505 9.17232 1.55996C9.32803 1.32488 9.52834 1.12415 9.76136 0.969684C9.99438 0.815218 10.2554 0.71016 10.5289 0.660742C10.5537 0.652289 10.5773 0.640253 10.5988 0.625H11.2212C11.8671 0.770647 12.3269 1.19508 12.7753 1.66061C13.467 2.37797 14.1644 3.08935 14.8618 3.80067C15.4865 4.43789 16.1112 5.07504 16.7316 5.71639M11.6145 15.5543L16.7316 5.71639M23.0763 27.644L23.0641 27.6408C22.576 27.5124 22.1234 27.3933 21.7614 27.0855L21.7612 27.0853C21.4819 26.8486 21.2213 26.5896 20.9819 26.3107C17.9285 22.7366 14.8791 19.1573 11.8338 15.5725C11.8089 15.5431 11.7809 15.513 11.7561 15.4864C11.7451 15.4746 11.7347 15.4634 11.7255 15.4533L11.6317 15.3503L11.522 15.4362C11.0721 15.7886 10.6198 15.8766 10.2254 15.7829C9.82784 15.6885 9.46766 15.4044 9.21722 14.9724L9.11221 14.7913L8.97448 14.949C8.92071 15.0105 8.86452 15.0724 8.80779 15.135C8.68869 15.2663 8.5672 15.4002 8.46066 15.5388L8.4541 15.5473L8.44883 15.5567C8.3867 15.6673 8.36487 15.7962 8.38672 15.9211C8.50466 16.8353 8.11184 17.6263 7.35511 18.0177L7.3548 18.0178C6.99114 18.2069 6.57811 18.272 6.17602 18.2037C5.7739 18.1354 5.40321 17.9372 5.11845 17.6374L5.11847 17.6374L5.11657 17.6355C3.65064 16.1471 2.18937 14.6528 0.732763 13.1525L0.732775 13.1525L0.731197 13.1509C0.43594 12.8557 0.242144 12.4699 0.179668 12.0515C0.11719 11.6331 0.189537 11.2053 0.385513 10.833L0.38603 10.832C0.780639 10.0683 1.57706 9.67679 2.45733 9.81143L2.45729 9.81175L2.46706 9.81259C2.5352 9.8185 2.60376 9.81014 2.66851 9.78808C2.73326 9.76602 2.7927 9.73077 2.84329 9.68467L2.84344 9.68483L2.84921 9.67896C4.85957 7.63406 6.86555 5.5841 8.86716 3.52907C8.91281 3.48355 8.94881 3.42925 8.97317 3.36953C8.99771 3.30937 9.00997 3.24484 9.0093 3.17986L9.00915 3.16551L9.00628 3.15145C8.95354 2.89278 8.95214 2.62589 9.00219 2.36666C9.05223 2.10743 9.15266 1.86129 9.29738 1.64279C9.44209 1.42431 9.6281 1.23798 9.84424 1.09471C10.0604 0.951447 10.3022 0.85412 10.5555 0.808351L10.5666 0.806359L10.5772 0.802753C10.5992 0.795263 10.6205 0.785973 10.641 0.775H11.2042C11.7945 0.913312 12.2235 1.30397 12.6673 1.76467L12.6674 1.76472C13.3574 2.48042 14.0569 3.19397 14.7559 3.90692C15.3814 4.54494 16.0064 5.18249 16.6238 5.82068L16.6239 5.82076C17.6271 6.85631 17.3234 8.51902 16.0535 9.04745C15.7552 9.1712 15.3924 9.18248 15.0243 9.18701C15.024 9.18702 15.0238 9.18702 15.0235 9.18703L15.0253 9.33701M23.0763 27.644L14.4419 9.40343M23.0763 27.644L23.8189 27.6457M23.0763 27.644L22.5363 19.7594M15.0253 9.33701C14.8286 9.33701 14.687 9.35221 14.5515 9.50589M15.0253 9.33701C15.3889 9.33255 15.7814 9.32272 16.111 9.18601M15.0253 9.33701L16.111 9.18601M14.5515 9.50589L14.4447 9.40066C14.4437 9.40158 14.4428 9.40251 14.4419 9.40343M14.5515 9.50589L14.439 9.4067C14.44 9.40561 14.441 9.40452 14.4419 9.40343M14.5515 9.50589C14.4506 9.60839 14.3454 9.70632 14.2362 9.79944C14.2221 9.7903 14.2078 9.78126 14.1933 9.77233L14.1145 9.89994L14.2081 10.0171C14.2206 10.0072 14.2331 9.9971 14.2455 9.98699C15.1158 10.6089 15.2645 11.6456 14.6066 12.4912L17.1634 14.7688M14.4419 9.40343C14.309 9.53825 14.1684 9.6649 14.0209 9.78275L13.8545 9.91565L14.0357 10.0276C14.497 10.3126 14.7638 10.7047 14.8412 11.1189C14.9185 11.533 14.8098 11.9858 14.4882 12.3991L14.402 12.5099L14.5068 12.6032L17.0636 14.8808L17.1634 14.7688M17.1634 14.7688L17.0636 14.8808L22.5363 19.7594M17.1634 14.7688L22.6362 19.6476M22.6362 19.6476L22.5363 19.7594M22.6362 19.6476L22.5364 19.7595L22.5363 19.7594M22.6362 19.6476C22.867 19.8538 23.097 20.0605 23.3269 20.2671C23.9932 20.8659 24.6585 21.4637 25.3364 22.0476L22.5363 19.7594M22.5363 19.7594C22.7663 19.9651 22.996 20.1715 23.2257 20.3778C23.8924 20.9769 24.5593 21.5762 25.2385 22.1613L25.2405 22.163C25.873 22.6883 26.2981 23.4307 26.4364 24.2528V24.9634C26.4332 24.9751 26.4298 24.9874 26.4264 25.0001C26.4133 25.0479 26.3986 25.1013 26.388 25.1521M26.388 25.1521C26.388 25.152 26.3881 25.1519 26.3881 25.1518L26.5348 25.1831L26.388 25.1524C26.388 25.1523 26.388 25.1522 26.388 25.1521ZM26.388 25.1521C26.1476 26.282 25.5024 27.0489 24.4541 27.4655M24.4541 27.4655C24.2454 27.5365 24.0334 27.5967 23.8189 27.6457M24.4541 27.4655C24.4552 27.4651 24.4564 27.4648 24.4576 27.4644L24.506 27.6063L24.4507 27.4669C24.4518 27.4664 24.453 27.466 24.4541 27.4655ZM23.8189 27.6457L23.8359 27.6458L23.8355 27.7958L23.8025 27.6494C23.8079 27.6482 23.8134 27.647 23.8189 27.6457ZM16.7316 5.71639C17.8015 6.82081 17.4877 8.61325 16.111 9.18601M16.7316 5.71639L16.111 9.18601M7.8395 14.7996L7.94671 14.9092L8.05394 14.7996L13.8686 8.85755L13.9713 8.75259L13.8685 8.64768L9.53115 4.2193L9.4239 4.1098L9.31674 4.21938L3.5065 10.1605L3.40392 10.2654L3.50652 10.3703L7.8395 14.7996ZM12.2546 14.7025L12.159 14.8003L12.2477 14.9045L17.7756 21.3961L17.882 21.5211L17.9969 21.4038L20.336 19.0172L20.4461 18.9049L20.3288 18.8003L13.9827 13.1379L13.8757 13.0424L13.7755 13.145L12.2546 14.7025ZM19.904 23.6888L19.8083 23.7866L19.897 23.8908C20.0716 24.0959 20.2473 24.3026 20.424 24.5103C20.8397 24.9992 21.2605 25.4941 21.6825 25.9876C21.7819 26.1063 21.8887 26.2183 22.0023 26.3228L22.0041 26.3244C22.4422 26.7146 23.0135 26.9137 23.5947 26.8778C24.1754 26.8419 24.7183 26.5744 25.107 26.1341C25.3073 25.9164 25.4627 25.6599 25.5641 25.38C25.6656 25.0996 25.7108 24.8012 25.6971 24.5026C25.6834 24.204 25.611 23.9112 25.4842 23.6417C25.3576 23.3725 25.1792 23.1318 24.9595 22.9341C24.5644 22.5659 24.1593 22.2085 23.7559 21.8527C23.5708 21.6894 23.3861 21.5265 23.2029 21.3629L23.2025 21.3626L22.7602 20.9704L22.6533 20.8755L22.5534 20.9778L19.904 23.6888ZM11.0972 1.54407L11.0602 1.52452L11.0184 1.52695C10.7196 1.54431 10.4682 1.60549 10.2645 1.72688C10.0579 1.84999 9.91134 2.02844 9.81304 2.25955C9.61779 2.71862 9.66924 3.20035 10.034 3.57627L10.034 3.57629C11.5068 5.09379 12.9855 6.60593 14.47 8.1127C14.6924 8.33859 14.9941 8.46557 15.309 8.46461C15.624 8.46365 15.9249 8.3348 16.146 8.10753C16.3668 7.88037 16.4899 7.57351 16.4889 7.25459C16.488 6.9359 16.3634 6.62998 16.1414 6.4042C14.6744 4.89208 13.1995 3.38829 11.7168 1.89285C11.61 1.78486 11.4775 1.71263 11.3644 1.66045C11.3128 1.63666 11.2626 1.61587 11.2194 1.598C11.2148 1.5961 11.2103 1.59424 11.2059 1.5924C11.1575 1.57235 11.1224 1.55741 11.0972 1.54407ZM2.0834 10.5497L1.9927 10.5522L1.99206 10.5535C1.79064 10.5665 1.59561 10.6331 1.42673 10.7472C1.2316 10.8791 1.0808 11.068 0.993724 11.2887C0.895155 11.5113 0.867881 11.7599 0.915657 11.9992C0.963421 12.2384 1.08388 12.4565 1.26044 12.6224C2.71665 14.1187 4.17635 15.6109 5.63954 17.0988C5.74942 17.2111 5.88003 17.3002 6.02398 17.3611C6.16801 17.4221 6.32249 17.4535 6.47857 17.4534C6.63465 17.4534 6.78911 17.4219 6.93311 17.3609C7.07709 17.2999 7.2077 17.2105 7.31755 17.0982C7.42739 16.9858 7.51434 16.8526 7.57358 16.7063C7.63283 16.56 7.66326 16.4032 7.66321 16.2451C7.66317 16.0869 7.63265 15.9302 7.57331 15.7839C7.51405 15.6377 7.42716 15.5047 7.31743 15.3925C5.8621 13.8947 4.40269 12.4014 2.9392 10.9125C2.83021 10.7946 2.69795 10.7011 2.5509 10.6385C2.40305 10.5756 2.24372 10.5453 2.0834 10.5497ZM9.87496 14.24L9.86023 14.2701L9.86147 14.3074C9.86719 14.4784 9.89871 14.6246 9.96803 14.7442C10.039 14.8667 10.1422 14.9486 10.2673 15.0026C10.3967 15.061 10.5413 15.0755 10.6796 15.0438C10.8165 15.0124 10.9395 14.9376 11.0313 14.8308C11.9911 13.8508 12.9498 12.869 13.9073 11.8855L13.9074 11.8853C14.1954 11.5888 14.2075 11.1731 13.9304 10.8957C13.7959 10.761 13.6245 10.6921 13.4455 10.7002C13.2677 10.7081 13.0959 10.7912 12.9543 10.9348L12.9543 10.9349C11.9971 11.9073 11.0438 12.884 10.0942 13.8648L10.0887 13.8704L10.0839 13.8766C9.99743 13.9869 9.92709 14.1093 9.87496 14.24ZM19.1485 23.0096L19.2553 23.1335L19.3695 23.0165L21.9044 20.4198L22.0146 20.307L21.8964 20.2026L21.1884 19.5772L21.0815 19.4828L20.9818 19.5847L18.5343 22.0866L18.438 22.1851L18.5279 22.2894L19.1485 23.0096Z" fill="#00D1FF" stroke="#00D1FF" stroke-width="0.3"/>
<path d="M1.59558 24.4299L1.46707 24.5081C0.984735 24.8017 0.648756 25.1622 0.436951 25.5843C0.224756 26.0072 0.132795 26.5009 0.152633 27.0668C0.158415 27.2196 0.180026 27.3376 0.224233 27.4316C0.262498 27.5129 0.320927 27.5831 0.415584 27.6433L14.1084 27.6424C14.1295 27.6187 14.1511 27.5961 14.1717 27.5749C14.1826 27.5636 14.1931 27.5529 14.2033 27.5425C14.2293 27.5159 14.2532 27.4915 14.2763 27.4662C14.3441 27.3918 14.3677 27.3472 14.3709 27.3182C14.4578 26.5006 14.3503 25.7402 13.811 25.1239L13.8104 25.1232C13.6711 24.9621 13.5121 24.8255 13.3399 24.6776C13.2578 24.607 13.1726 24.5339 13.0851 24.4543L12.9984 24.3753L13.0541 24.2721C13.063 24.2558 13.0726 24.2383 13.0827 24.22C13.1073 24.1752 13.1349 24.1251 13.1613 24.0725L13.1618 24.0713C13.7369 22.947 12.9504 21.587 11.7309 21.5804L1.59558 24.4299ZM1.59558 24.4299L1.51697 24.3016M1.59558 24.4299L1.51697 24.3016M1.51697 24.3016C1.2464 23.8601 1.13307 23.4114 1.24023 22.9169L1.24056 22.9153M1.51697 24.3016L1.24056 22.9153M1.24056 22.9153C1.31719 22.5425 1.515 22.2079 1.80098 21.9657M1.24056 22.9153L1.80098 21.9657M0.91337 26.8639L0.913034 26.7142C0.912526 26.4879 0.955852 26.2636 1.04059 26.0543C1.12534 25.845 1.24986 25.6547 1.40715 25.4945C1.56445 25.3342 1.7514 25.2072 1.95732 25.121C2.16303 25.0348 2.38349 24.991 2.60599 24.9922M0.91337 26.8639L2.60585 25.1422M0.91337 26.8639H1.06303H13.4956H13.6453L13.6456 26.7142C13.646 26.4875 13.6024 26.2629 13.5173 26.0533C13.4322 25.8437 13.3073 25.6533 13.1495 25.493C12.9917 25.3327 12.8043 25.2058 12.5979 25.1198C12.3917 25.0339 12.1709 24.9905 11.9481 24.9922M0.91337 26.8639L11.9484 25.1422M2.60599 24.9922C2.60624 24.9922 2.60648 24.9922 2.60672 24.9922L2.60585 25.1422M2.60599 24.9922C2.60577 24.9922 2.60554 24.9922 2.60531 24.9922L2.60585 25.1422M2.60599 24.9922C3.60959 24.9886 4.61349 24.9898 5.61697 24.991C6.11862 24.9916 6.62017 24.9922 7.12153 24.9922C7.65749 24.9922 8.19369 24.9914 8.72999 24.9906C9.80269 24.989 10.8758 24.9874 11.9481 24.9922M2.60585 25.1422C3.60933 25.1386 4.61282 25.1398 5.6163 25.141C6.11804 25.1416 6.61978 25.1422 7.12153 25.1422C7.65797 25.1422 8.19442 25.1414 8.73084 25.1406C9.80357 25.139 10.8762 25.1374 11.9484 25.1422M11.9481 24.9922C11.9478 24.9922 11.9475 24.9922 11.9472 24.9922L11.9484 25.1422M11.9481 24.9922C11.9484 24.9922 11.9487 24.9922 11.9491 24.9922L11.9484 25.1422M1.80098 21.9657C2.08655 21.7239 2.44328 21.5883 2.81304 21.5804M1.80098 21.9657L2.81304 21.5804M2.81304 21.5804C5.78455 21.5724 8.75555 21.5661 11.7308 21.5804L2.81304 21.5804ZM11.7586 24.2267C11.9357 24.2147 12.1053 24.1503 12.2466 24.0417C12.3878 23.9332 12.4945 23.7854 12.5543 23.6166C12.7965 22.9756 12.3273 22.3433 11.6354 22.3428C10.4804 22.3364 9.32532 22.3368 8.17076 22.3373C7.88304 22.3374 7.59536 22.3375 7.30771 22.3375C7.30684 22.3375 7.30596 22.3375 7.30509 22.3375H6.65737H6.65003H6.64268H6.63534H6.62799H6.62065H6.6133H6.60596H6.59861H6.59127H6.58393H6.57658H6.56924H6.56189H6.55455H6.5472H6.53986H6.53252H6.52517H6.51783H6.51048H6.50314H6.49579H6.48845H6.48111H6.47376H6.46642H6.45907H6.45173H6.44439H6.43704H6.4297H6.42235H6.41501H6.40766H6.40032H6.39298H6.38563H6.37829H6.37095H6.3636H6.35626H6.34891H6.34157H6.33423H6.32688H6.31954H6.3122H6.30485H6.29751H6.29016H6.28282H6.27548H6.26813H6.26079H6.25345H6.2461H6.23876H6.23142H6.22407H6.21673H6.20938H6.20204H6.1947H6.18735H6.18001H6.17267H6.16532H6.15798H6.15064H6.14329H6.13595H6.12861H6.12126H6.11392H6.10658H6.09923H6.09189H6.08455H6.07721H6.06986H6.06252H6.05518H6.04783H6.04049H6.03315H6.0258H6.01846H6.01112H6.00377H5.99643H5.98909H5.98175H5.9744H5.96706H5.95972H5.95237H5.94503H5.93769H5.93035H5.923H5.91566H5.90832H5.90097H5.89363H5.88629H5.87895H5.8716H5.86426H5.85692H5.84958H5.84223H5.83489H5.82755H5.8202H5.81286H5.80552H5.79818H5.79083H5.78349H5.77615H5.76881H5.76146H5.75412H5.74678H5.73944H5.73209H5.72475H5.71741H5.71007H5.70273H5.69538H5.68804H5.6807H5.67336H5.66601H5.65867H5.65133H5.64399H5.63664H5.6293H5.62196H5.61462H5.60728H5.59993H5.59259H5.58525H5.57791H5.57057H5.56322H5.55588H5.54854H5.5412H5.53386H5.52651H5.51917H5.51183H5.50449H5.49715H5.4898H5.48246H5.47512H5.46778H5.46044H5.45309H5.44575H5.43841H5.43107H5.42373H5.41638H5.40904H5.4017H5.39436H5.38702H5.37968H5.37233H5.36499H5.35765H5.35031H5.34297H5.33563H5.32828H5.32094H5.3136H5.30626H5.29892H5.29158H5.28424H5.27689H5.26955H5.26221H5.25487H5.24753H5.24019H5.23284H5.2255H5.21816H5.21082H5.20348H5.19614H5.1888H5.18145H5.17411H5.16677H5.15943H5.15209H5.14475H5.13741H5.13006H5.12272H5.11538H5.10804H5.1007H5.09336H5.08602H5.07868H5.07133H5.06399H5.05665H5.04931H5.04197H5.03463H5.02729H5.01995H5.01261H5.00526H4.99792H4.99058H4.98324H4.9759H4.96856H4.96122H4.95388H4.94654H4.9392H4.93185H4.92451H4.91717H4.90983H4.90249H4.89515H4.88781H4.88047H4.87313H4.86579H4.85844H4.8511H4.84376H4.83642H4.82908H4.82174H4.8144H4.80706H4.79972H4.79238H4.78504H4.7777H4.77035H4.76301H4.75567H4.74833H4.74099H4.73365H4.72631H4.71897H4.71163H4.70429H4.69695H4.68961H4.68227H4.67493H4.66758H4.66024H4.6529H4.64556H4.63822H4.63088H4.62354H4.6162H4.60886H4.60152H4.59418H4.58684H4.5795H4.57216H4.56482H4.55748H4.55014H4.5428H4.53546H4.52811H4.52077H4.51343H4.50609H4.49875H4.49141H4.48407H4.47673H4.46939H4.46205H4.45471H4.44737H4.44003H4.43269H4.42535H4.41801H4.41067H4.40333H4.39599H4.38865H4.38131H4.37397H4.36663H4.35929H4.35195H4.34461H4.33727H4.32993H4.32259H4.31524H4.3079H4.30056H4.29322H4.28588H4.27854H4.2712H4.26386H4.25652H4.24918H4.24184H4.2345H4.22716H4.21982H4.21248H4.20514H4.1978H4.19046H4.18312H4.17578H4.16844H4.1611H4.15376H4.14642H4.13908H4.13174H4.1244H4.11706H4.10972H4.10238H4.09504H4.0877H4.08036H4.07302H4.06568H4.05834H4.051H4.04366H4.03632H4.02898H4.02164H4.0143H4.00696H3.99962H3.99228H3.98494H3.9776H3.97026H3.96292H3.95558H3.94824H3.9409H3.93356H3.92622H3.91888H3.91154H3.9042H3.89686H3.88952H3.88218H3.87484H3.8675H3.86016H3.85282H3.84548H3.83814H3.8308H3.82346H3.81613H3.80879H3.80145H3.79411H3.78677H3.77943H3.77209H3.76475H3.75741H3.75007H3.74273H3.73539H3.72805H3.72071H3.71337H3.70603H3.69869H3.69135H3.68401H3.67667H3.66933H3.66199H3.65465H3.64731H3.63997H3.63263H3.62529H3.61795H3.61061H3.60327H3.59593H3.58859H3.58125H3.57391H3.56657H3.55923H3.5519H3.54456H3.53722H3.52988H3.52254H3.5152H3.50786H3.50052H3.49318H3.48584H3.4785H3.47116H3.46382H3.45648H3.44914H3.4418H3.43446H3.42712H3.41978H3.41244H3.4051H3.39776H3.39042H3.38308H3.37574H3.3684H3.36107H3.35373H3.34639H3.33905H3.33171H3.32437H3.31703H3.30969H3.30235H3.29501H3.28767H3.28033H3.27299H3.26565H3.25831H3.25097H3.24363H3.23629H3.22895H3.22161H3.21427H3.20693H3.1996H3.19226H3.18492H3.17758H3.17024H3.1629H3.15556H3.14822H3.14088H3.13354H3.1262H3.11886H3.11152H3.10418H3.09684H3.0895H3.08216H3.07482H3.06748H3.06014H3.0528H3.04547H3.03813H3.03079H3.02345H3.01611H3.00877H3.00143H2.99409H2.98675H2.97941H2.97207H2.96473H2.95739H2.95005H2.94271H2.93537H2.92803H2.92069H2.91335H2.90795C2.66663 22.3088 2.42417 22.378 2.23268 22.5295C2.03865 22.6831 1.91302 22.9085 1.88226 23.1556C1.85151 23.4027 1.91796 23.6526 2.06775 23.8504C2.21669 24.047 2.4362 24.1763 2.67897 24.2091C2.78113 24.2284 2.88506 24.2362 2.9889 24.2324H11.5378C11.6114 24.2347 11.6852 24.2328 11.7586 24.2267ZM11.7586 24.2267C11.7581 24.2267 11.7576 24.2267 11.7572 24.2268L11.7473 24.0771L11.76 24.2265C11.7595 24.2266 11.759 24.2266 11.7586 24.2267ZM1.06973 26.5639H1.06303V26.7067C1.06314 26.659 1.06538 26.6113 1.06973 26.5639ZM13.4956 26.5639H13.4888C13.4932 26.6119 13.4955 26.6601 13.4956 26.7085V26.5639Z" fill="#00D1FF" stroke="#00D1FF" stroke-width="0.3"/>
<path d="M9.73893 6.68212L9.7379 6.68408C9.71646 6.72522 9.68911 6.76269 9.65686 6.79523L9.65599 6.79612C9.58739 6.8665 9.5188 6.93688 9.45022 7.00726C8.79917 7.67535 8.14872 8.34283 7.49118 9.00372C7.42373 9.06647 7.34074 9.10828 7.25179 9.12479L7.25179 9.12478L7.25008 9.12512C7.18055 9.13887 7.10841 9.12832 7.04512 9.09488C6.98177 9.0614 6.9306 9.00669 6.90057 8.93895L6.89708 8.93106L6.89269 8.92362C6.85332 8.85677 6.83767 8.77765 6.84881 8.69988C6.85995 8.62212 6.89705 8.55133 6.953 8.4993L6.95314 8.49945L6.95862 8.4938C7.69258 7.73581 8.43088 6.98285 9.17353 6.23493C9.23258 6.18941 9.29843 6.15428 9.36837 6.13085C9.54447 6.13699 9.66632 6.21705 9.73015 6.31593C9.79685 6.41924 9.80811 6.55399 9.73893 6.68212Z" fill="#00D1FF" stroke="#00D1FF" stroke-width="0.3"/>
<path d="M5.75474 10.6262L5.75474 10.6261L5.75073 10.6262C5.70419 10.6271 5.65786 10.6185 5.61446 10.6008C5.57105 10.583 5.53134 10.5564 5.49777 10.5225C5.46419 10.4885 5.43744 10.4478 5.41926 10.4027C5.40107 10.3576 5.39189 10.3091 5.39231 10.2601L5.39238 10.2601L5.39228 10.2555C5.39008 10.1554 5.42687 10.059 5.49361 9.98743C5.56003 9.91621 5.65058 9.87538 5.74527 9.87268C5.79409 9.87214 5.84261 9.88145 5.88808 9.90016C5.93384 9.91899 5.97571 9.94702 6.01117 9.98278C6.04663 10.0186 6.07496 10.0614 6.09435 10.1088C6.11356 10.1558 6.12358 10.2062 6.12377 10.2573C6.12141 10.3572 6.08086 10.4515 6.01177 10.5202C5.94246 10.5892 5.85006 10.6269 5.75474 10.6262Z" fill="#00D1FF" stroke="#00D1FF" stroke-width="0.3"/>
</svg>
