<svg width="22" height="25" viewBox="0 0 22 25" fill="none" xmlns="http://www.w3.org/2000/svg">
<path d="M1.25034 24.6789C1.04681 24.5572 1 24.3796 1 24.1644C1.00317 16.6157 1.00317 9.06707 1 1.51842C1 1.3032 1.04613 1.12563 1.25034 1.00391H20.7496C20.9531 1.12563 21.0026 1.3032 20.9999 1.51904C20.9918 2.27199 20.9999 3.02932 20.9965 3.78414C20.9965 3.83057 20.9965 3.87701 20.9965 3.92281C20.9755 4.15497 20.8201 4.29928 20.601 4.2861C20.3934 4.27669 20.2516 4.13552 20.2496 3.90963C20.2441 3.28218 20.2496 2.66101 20.2496 2.03732C20.2496 1.93693 20.2496 1.83716 20.2496 1.71732H1.77001V23.9649H15.888V23.7107C15.888 22.6232 15.888 21.5366 15.888 20.4511C15.888 20.0571 15.9952 19.958 16.4158 19.9573H20.2441V5.86916C20.2441 5.78446 20.2401 5.69912 20.2475 5.61818C20.2652 5.41426 20.4131 5.27622 20.6105 5.27246C20.8079 5.26869 20.9626 5.40548 20.9897 5.60563C20.9963 5.67468 20.9981 5.74405 20.9952 5.81332C20.9952 10.5753 20.9965 15.3372 20.9992 20.0991C21.004 20.2096 20.983 20.3196 20.9375 20.4219C20.8921 20.5241 20.8234 20.616 20.736 20.6914C19.3832 21.9325 18.0336 23.1784 16.6872 24.4292C16.5942 24.5151 16.4958 24.5961 16.3995 24.6801L1.25034 24.6789ZM16.6505 23.4033L19.6125 20.6651H16.6519L16.6505 23.4033Z" fill="#FFCCA2" stroke="#FFCCA2" stroke-width="0.3"/>
<path d="M10.9745 9.10919H3.60415C3.10483 9.10919 3.00781 9.01883 3.00781 8.55577C3.00781 7.07708 3.00781 5.59797 3.00781 4.11844C3.00781 3.70495 3.12382 3.59766 3.56955 3.59766H18.4372C18.8809 3.59766 18.9962 3.70621 18.9962 4.12158C18.9962 5.61617 18.9962 7.11054 18.9962 8.60471C18.9962 9.00252 18.8809 9.10668 18.4467 9.10668C15.956 9.10919 13.4652 9.11002 10.9745 9.10919ZM3.77172 8.40079H18.2275V4.30793H3.77172V8.40079Z" fill="#FFCCA2" stroke="#FFCCA2" stroke-width="0.3"/>
<path d="M10.5736 14.6845C10.5736 16.1021 10.5736 17.5195 10.5736 18.9367C10.5736 19.3992 10.4739 19.4914 9.97589 19.4914H3.60347C3.11297 19.4914 3.00781 19.3923 3.00781 18.9305V10.4486C3.00781 9.9899 3.11161 9.89453 3.61093 9.89453H9.98335C10.4718 9.89453 10.5736 9.98677 10.5736 10.4323C10.5745 11.8499 10.5745 13.2673 10.5736 14.6845ZM9.809 10.6061H3.78325V18.783H9.81035L9.809 10.6061Z" fill="#FFCCA2" stroke="#FFCCA2" stroke-width="0.3"/>
<path d="M15.1976 14.3011C14.1312 14.3011 13.0649 14.3011 11.9989 14.3011C11.5328 14.3011 11.4304 14.2045 11.4297 13.7678C11.4297 12.6509 11.4297 11.5341 11.4297 10.4172C11.4297 9.99869 11.5403 9.89453 11.9867 9.89453H18.4317C18.8761 9.89453 18.9927 10.0043 18.9934 10.4172C18.9934 11.5416 18.9934 12.6662 18.9934 13.791C18.9934 14.1888 18.874 14.3005 18.4439 14.3011C17.3625 14.3028 16.2804 14.3028 15.1976 14.3011ZM12.18 13.5902H18.2254V10.6054C18.1881 10.5974 18.1503 10.5917 18.1121 10.5885C16.1963 10.5885 14.2804 10.587 12.3646 10.5841C12.1692 10.5841 12.1787 10.6851 12.1793 10.8068C12.1793 11.6154 12.1793 12.4242 12.1793 13.2332L12.18 13.5902Z" fill="#FFCCA2" stroke="#FFCCA2" stroke-width="0.3"/>
<path d="M15.2275 15.0871C16.3021 15.0871 17.3765 15.0871 18.4507 15.0871C18.8828 15.0871 18.9968 15.195 18.9975 15.5953C18.9975 16.7272 18.9975 17.8596 18.9975 18.9923C18.9975 19.3725 18.8713 19.4886 18.4548 19.4886C16.2892 19.4886 14.1237 19.4886 11.9582 19.4886C11.5559 19.4886 11.4304 19.3769 11.4297 19.0099C11.4297 17.8621 11.4297 16.7142 11.4297 15.5664C11.4297 15.19 11.5409 15.0883 11.9514 15.0877C13.0441 15.0856 14.1361 15.0854 15.2275 15.0871ZM18.2356 15.7967H12.2017V18.7765H18.2356V15.7967Z" fill="#FFCCA2" stroke="#FFCCA2" stroke-width="0.3"/>
</svg>
